<?xml version="1.0" encoding="utf-8"?>
<!-- Generator: Adobe Illustrator 28.2.0, SVG Export Plug-In . SVG Version: 6.00 Build 0)  -->
<svg version="1.1" id="Ebene_1" xmlns="http://www.w3.org/2000/svg" xmlns:xlink="http://www.w3.org/1999/xlink" x="0px" y="0px"
	 viewBox="0 0 257.4 256" style="enable-background:new 0 0 257.4 256;" xml:space="preserve">
<g>
	<path d="M128,0c70.7,0,128,57.3,128,128s-57.3,128-128,128S0,198.7,0,128S57.3,0,128,0z M72,120c-4.4,0-8,3.6-8,8c0,4.4,3.6,8,8,8
		h92.7l-34.4,34.3c-3.1,3.1-3.1,8.2,0,11.3s8.2,3.1,11.3,0l48-48c3.1-3.1,3.1-8.2,0-11.3c0,0,0,0,0,0l-48-48
		c-3.1-3.1-8.2-3.1-11.3,0s-3.1,8.2,0,11.3l34.4,34.3H72z"/>
</g>
</svg>
