<svg width="512" height="512" viewBox="0 0 512 512" style="color:currentColor" xmlns="http://www.w3.org/2000/svg" class="h-full w-full"><rect width="512" height="512" x="0" y="0" rx="30" fill="transparent" stroke="transparent" stroke-width="0" stroke-opacity="100%" paint-order="stroke"></rect><svg width="256px" height="256px" viewBox="0 0 16 16" fill="currentColor" x="128" y="128" role="img" style="display:inline-block;vertical-align:middle" xmlns="http://www.w3.org/2000/svg"><g fill="currentColor"><g fill="currentColor"><path d="M5 8c0-1.657 2.343-3 4-3V4a4 4 0 0 0-4 4z"/><path d="M12.318 3h2.015C15.253 3 16 3.746 16 4.667v6.666c0 .92-.746 1.667-1.667 1.667h-2.015A5.97 5.97 0 0 1 9 14a5.972 5.972 0 0 1-3.318-1H1.667C.747 13 0 12.254 0 11.333V4.667C0 3.747.746 3 1.667 3H2a1 1 0 0 1 1-1h1a1 1 0 0 1 1 1h.682A5.97 5.97 0 0 1 9 2c1.227 0 2.367.368 3.318 1zM2 4.5a.5.5 0 1 0-1 0a.5.5 0 0 0 1 0zM14 8A5 5 0 1 0 4 8a5 5 0 0 0 10 0z"/></g></g></svg></svg>