<?xml version="1.0" encoding="utf-8"?>
<!-- Generator: Adobe Illustrator 28.2.0, SVG Export Plug-In . SVG Version: 6.00 Build 0)  -->
<svg version="1.1" id="Ebene_1" xmlns="http://www.w3.org/2000/svg" xmlns:xlink="http://www.w3.org/1999/xlink" x="0px" y="0px"
	 viewBox="0 0 256 256" style="enable-background:new 0 0 256 256;" xml:space="preserve">
<g>
	<g>
		<path d="M128,240c-61.9,0-112-50.1-112-112S66.1,16,128,16s112,50.1,112,112S189.9,240,128,240z M128,256c70.7,0,128-57.3,128-128
			S198.7,0,128,0S0,57.3,0,128S57.3,256,128,256z"/>
		<path d="M74.3,74.3c3.1-3.1,8.2-3.1,11.3,0c0,0,0,0,0,0l42.3,42.4l42.3-42.4c3.1-3.1,8.2-3.1,11.3,0s3.1,8.2,0,11.3L139.3,128
			l42.4,42.3c3.1,3.1,3.1,8.2,0,11.3s-8.2,3.1-11.3,0L128,139.3l-42.3,42.4c-3.1,3.1-8.2,3.1-11.3,0s-3.1-8.2,0-11.3l42.4-42.3
			L74.3,85.7C71.2,82.5,71.2,77.5,74.3,74.3C74.3,74.3,74.3,74.3,74.3,74.3z"/>
	</g>
</g>
</svg>
