<?xml version="1.0" encoding="utf-8"?>
<!-- Generator: Adobe Illustrator 28.2.0, SVG Export Plug-In . SVG Version: 6.00 Build 0)  -->
<svg version="1.1" id="Ebene_1" xmlns="http://www.w3.org/2000/svg" xmlns:xlink="http://www.w3.org/1999/xlink" x="0px" y="0px"
	 viewBox="0 0 256 256" style="enable-background:new 0 0 256 256;" xml:space="preserve">
<style type="text/css">
	.st0{fill-rule:evenodd;clip-rule:evenodd;}
</style>
<g>
	<g>
		<path class="st0" d="M104,192c48.6,0,88-39.4,88-88s-39.4-88-88-88l0,0c-48.6,0-88,39.4-88,88S55.4,192,104,192z M208,104
			c0,57.4-46.6,104-104,104S0,161.4,0,104S46.6,0,104,0S208,46.6,208,104z"/>
		<path d="M165.5,187.9c0.5,0.6,1,1.2,1.6,1.8l61.6,61.6c6.2,6.3,16.4,6.3,22.6,0s6.3-16.4,0-22.6l-61.6-61.6
			c-0.6-0.6-1.2-1.1-1.8-1.6C181.6,174,174.1,181.6,165.5,187.9L165.5,187.9z"/>
		<path class="st0" d="M104,48c4.4,0,8,3.6,8,8v40h40c4.4,0,8,3.6,8,8s-3.6,8-8,8h-40v40c0,4.4-3.6,8-8,8s-8-3.6-8-8v-40H56
			c-4.4,0-8-3.6-8-8s3.6-8,8-8h40V56C96,51.6,99.6,48,104,48z"/>
	</g>
</g>
</svg>
